<svg width="20" height="20" viewBox="0 0 20 20" fill="none" xmlns="http://www.w3.org/2000/svg">
<path fill-rule="evenodd" clip-rule="evenodd" d="M0.369428 0.83893C0.100014 0.956274 -0.050924 1.27936 0.0329432 1.5592C0.062201 1.6569 1.22216 3.09233 3.709 6.10827L7.34232 10.5146L7.35294 14.6434L7.36357 18.7723L7.45751 18.9233C7.56154 19.0907 7.79443 19.2192 7.99619 19.2206C8.08279 19.2212 8.78251 18.8896 10.2813 18.1375C12.1437 17.203 12.4538 17.0352 12.5296 16.9208L12.6175 16.788L12.6176 14.9676C12.6176 13.9664 12.6292 12.5519 12.6435 11.8242L12.6693 10.5012L16.2967 6.10155C18.7638 3.10901 19.9377 1.65631 19.9672 1.5592C20.0531 1.27569 19.8989 0.952719 19.6225 0.83725C19.4351 0.758969 0.549271 0.76061 0.369428 0.83893ZM18.0608 2.0435C18.0443 2.07026 16.5811 3.84995 14.8094 5.99834C13.0376 8.14678 11.5523 9.96502 11.5087 10.0389C11.4313 10.1702 11.429 10.244 11.4131 13.2089L11.3968 16.2444L10 16.9321C9.23173 17.3104 8.59232 17.6199 8.57908 17.6199C8.56583 17.6199 8.5549 15.9368 8.55482 13.8797C8.5547 10.2919 8.55169 10.1346 8.48146 10.0194C8.44118 9.95334 6.95958 8.14268 5.18904 5.99573C3.41845 3.84874 1.9563 2.07026 1.93978 2.0435C1.91587 2.00479 3.55716 1.99491 10.0003 1.99491C16.4434 1.99491 18.0847 2.00479 18.0608 2.0435Z" fill="black"/>
</svg>
